<svg xmlns="http://www.w3.org/2000/svg" viewBox="0 0 512 512">
  <rect width="512" height="512" rx="64" fill="#1a3a5c"/>
  <svg x="36" y="129" width="440" height="255" viewBox="0 0 1064 616" preserveAspectRatio="xMidYMid meet">
    <g transform="translate(0,616) scale(0.1,-0.1)" fill="#ffffff" stroke="none">
      <path d="M1110 6124 c-6 -14 -10 -35 -10 -46 0 -11 -4 -37 -9 -57 -5 -20 -14 -61 -20 -91 -6 -30 -18 -91 -27 -135 -9 -44 -19 -91 -21 -105 -18 -93 -80 -414 -93 -475 -5 -22 -14 -67 -20 -100 -6 -33 -15 -78 -20 -100 -5 -22 -13 -67 -20 -100 -6 -33 -15 -80 -21 -105 -10 -45 -77 -383 -86 -430 -16 -85 -61 -318 -73 -375 -12 -57 -25 -124 -70 -355 -45 -231 -58 -298 -70 -355 -5 -22 -14 -67 -20 -100 -6 -33 -15 -78 -20 -100 -5 -22 -14 -67 -20 -100 -6 -33 -16 -79 -21 -102 -17 -80 -56 -73 400 -73 226 0 412 4 415 8 3 5 12 44 21 88 8 43 19 102 25 129 6 28 28 142 50 255 45 231 58 298 70 355 5 22 14 67 20 100 6 33 15 78 20 100 5 22 18 92 30 155 12 63 25 133 30 155 5 22 13 63 19 90 10 57 20 105 57 290 15 72 30 150 34 175 7 42 20 105 40 205 4 22 13 67 20 101 15 78 18 82 65 85 85 6 91 3 103 -43 14 -57 29 -125 37 -168 4 -19 11 -51 15 -70 4 -19 18 -82 30 -140 12 -58 26 -121 30 -140 12 -54 51 -240 61 -290 5 -25 13 -63 18 -85 5 -22 19 -87 31 -145 12 -58 26 -123 31 -145 5 -22 14 -62 19 -90 5 -27 14 -70 20 -95 6 -25 15 -67 20 -95 5 -27 14 -70 20 -95 6 -25 15 -67 20 -95 17 -79 27 -126 40 -185 7 -30 16 -73 20 -95 4 -22 13 -62 19 -90 6 -27 19 -88 29 -135 l18 -85 659 0 659 0 7 30 c8 32 17 75 49 245 26 135 40 205 50 255 5 22 14 67 20 100 7 33 16 80 21 105 5 25 23 115 39 200 34 176 48 248 60 305 12 55 25 124 60 305 35 181 48 250 60 305 5 22 14 67 20 100 6 33 15 78 20 100 5 22 14 69 20 105 23 125 24 127 84 133 29 3 68 2 86 -2 32 -6 34 -10 46 -66 20 -93 32 -151 54 -265 26 -136 40 -206 50 -255 5 -22 13 -67 20 -100 6 -33 15 -78 20 -100 5 -22 18 -92 30 -155 12 -63 25 -133 30 -155 5 -22 14 -67 20 -100 6 -33 15 -78 20 -100 12 -55 25 -124 60 -305 35 -181 48 -250 60 -305 5 -22 14 -67 20 -100 14 -68 24 -122 43 -215 l13 -65 422 -3 421 -2 12 22 c11 21 18 42 39 128 5 19 13 51 19 70 10 35 16 58 45 163 9 31 23 83 32 115 27 98 32 115 48 176 9 33 14 66 12 73 -4 10 -48 13 -200 13 l-194 0 -10 33 c-6 17 -15 61 -22 97 -6 36 -16 83 -21 105 -7 31 -124 620 -152 765 -2 14 -38 194 -80 400 -41 206 -77 386 -80 400 -35 183 -140 695 -148 728 l-12 42 -688 0 c-415 0 -690 -4 -694 -9 -5 -9 -35 -141 -55 -246 -6 -27 -14 -70 -20 -95 -6 -25 -14 -67 -20 -95 -5 -27 -18 -90 -29 -140 -10 -49 -29 -137 -41 -195 -12 -58 -31 -145 -41 -195 -11 -49 -24 -112 -29 -140 -6 -27 -14 -70 -20 -95 -6 -25 -15 -67 -20 -95 -5 -27 -14 -70 -20 -95 -6 -25 -15 -70 -21 -100 -6 -30 -15 -73 -19 -95 -5 -22 -14 -62 -19 -90 -6 -27 -19 -90 -30 -140 -10 -49 -28 -135 -39 -190 -29 -140 -26 -135 -82 -135 -54 0 -56 3 -71 85 -5 28 -13 70 -19 95 -6 25 -15 68 -20 95 -5 28 -14 70 -20 95 -6 25 -15 68 -20 95 -6 28 -15 68 -19 90 -5 22 -18 85 -30 140 -11 55 -30 143 -41 195 -12 52 -25 113 -29 135 -5 22 -19 87 -31 145 -30 140 -37 176 -49 235 -6 28 -19 91 -30 140 -10 50 -29 137 -41 195 -12 58 -26 121 -30 140 -4 19 -15 71 -24 115 -9 44 -21 97 -28 118 l-11 37 -689 0 -688 0 -10 -26z"/>
      <path d="M6635 5521 c-29 -6 -30 -9 -68 -156 -21 -83 -43 -166 -47 -185 -5 -19 -27 -107 -50 -195 -42 -162 -51 -198 -69 -270 -5 -22 -24 -94 -41 -160 -17 -66 -35 -136 -40 -155 -5 -19 -27 -107 -50 -195 -23 -88 -45 -176 -50 -195 -5 -19 -32 -125 -60 -235 -28 -110 -55 -216 -60 -235 -5 -19 -27 -107 -50 -195 -23 -88 -46 -178 -51 -200 -17 -69 -27 -108 -49 -190 -12 -44 -26 -98 -31 -120 -18 -74 -27 -109 -59 -230 -17 -66 -35 -136 -40 -155 -7 -33 -82 -324 -172 -670 -22 -85 -44 -173 -49 -195 -6 -22 -14 -56 -18 -75 -10 -39 -39 -146 -47 -172 -5 -17 -145 -18 -2697 -20 l-2691 -3 -13 -55 c-6 -30 -17 -81 -23 -112 -5 -32 -14 -83 -20 -113 -5 -30 -14 -80 -20 -110 -18 -100 -29 -159 -39 -210 -6 -27 -13 -74 -16 -102 l-7 -53 3124 0 3124 0 12 48 c13 45 20 76 42 162 6 22 14 57 20 78 5 20 19 78 31 127 11 50 25 104 29 120 16 57 29 110 90 360 33 138 64 264 69 280 5 17 15 55 21 85 7 30 16 66 20 80 5 14 13 48 20 75 12 52 23 98 40 163 5 20 37 150 70 287 33 138 64 264 69 280 5 17 28 107 50 200 23 94 46 186 51 205 5 19 14 58 20 85 7 28 15 61 20 75 4 14 13 50 20 80 6 30 16 69 21 85 5 17 49 197 99 400 50 204 95 388 101 410 6 22 15 57 20 78 5 20 14 56 20 80 6 23 15 59 20 80 5 20 14 56 20 80 6 23 15 59 20 80 5 20 14 55 21 77 l11 40 876 2 876 3 -1 30 c-1 17 -16 68 -33 115 -18 47 -36 96 -41 110 -5 14 -23 63 -40 110 -17 47 -35 96 -40 110 -5 14 -23 63 -40 110 -18 47 -36 99 -41 115 -5 17 -13 37 -19 45 -8 13 -139 15 -1072 16 -585 1 -1076 -1 -1093 -5z"/>
      <path d="M7306 3571 c-6 -10 -34 -107 -47 -166 -5 -22 -14 -58 -19 -80 -6 -22 -15 -58 -20 -80 -6 -22 -15 -58 -20 -80 -6 -22 -15 -58 -21 -80 -24 -91 -31 -122 -32 -150 l-2 -30 906 -3 906 -2 121 -362 c86 -258 117 -365 109 -370 -7 -4 -334 -8 -728 -8 l-716 0 -11 -42 c-6 -24 -20 -82 -31 -130 -12 -49 -30 -127 -42 -175 -11 -49 -25 -108 -30 -133 -6 -25 -14 -61 -19 -80 -5 -19 -16 -65 -25 -102 -24 -109 -45 -197 -66 -288 -11 -47 -25 -105 -30 -130 -6 -25 -14 -61 -19 -80 -5 -19 -14 -57 -20 -85 -6 -27 -15 -66 -20 -85 -5 -19 -13 -55 -19 -80 -10 -43 -30 -129 -70 -302 -11 -46 -27 -113 -35 -150 -9 -38 -23 -98 -32 -134 -10 -40 -13 -69 -7 -75 5 -5 692 -8 1694 -7 l1684 3 -3 30 c-1 17 -11 53 -21 80 -10 28 -96 286 -191 575 -95 289 -230 698 -300 910 -70 212 -218 662 -330 1000 -111 338 -206 624 -210 635 -5 11 -27 81 -51 155 -23 74 -48 147 -56 163 l-14 27 -1069 0 c-596 0 -1071 -4 -1074 -9z m2119 -2246 c18 -55 42 -134 55 -175 12 -41 35 -113 50 -160 53 -166 83 -265 90 -297 l8 -33 -744 0 c-409 0 -744 3 -744 6 0 3 5 26 11 52 5 26 14 66 20 90 5 23 14 63 20 90 13 60 28 125 40 180 5 23 14 63 20 90 6 26 14 65 19 87 10 44 30 130 37 158 4 16 36 17 545 15 l541 -3 32 -100z"/>
    </g>
  </svg>
</svg>
